{
  "accessors": [
    {
      "bufferView": 2,
      "componentType": 5126,
      "count": 65532,
      "max": [
        10.241289138793945,
        5.215464115142822,
        15.062438011169434
      ],
      "min": [
        -9.82975959777832,
        -4.223471164703369,
        1.0
      ],
      "type": "VEC3"
    },
    {
      "bufferView": 2,
      "byteOffset": 786384,
      "componentType": 5126,
      "count": 65532,
      "max": [
        0.9999996423721313,
        0.9999997615814209,
        0.9996713995933533
      ],
      "min": [
        -0.999998927116394,
        -0.9999997615814209,
        -0.9999897480010986
      ],
      "type": "VEC3"
    },
    {
      "bufferView": 1,
      "componentType": 5126,
      "count": 65532,
      "max": [
        0.9987729787826538,
        0.8161619901657104
      ],
      "min": [
        0.0015849999617785215,
        0.03478299826383591
      ],
      "type": "VEC2"
    },
    {
      "bufferView": 0,
      "componentType": 5125,
      "count": 324444,
      "type": "SCALAR"
    },
    {
      "bufferView": 2,
      "byteOffset": 1572768,
      "componentType": 5126,
      "count": 65532,
      "max": [
        8.44609546661377,
        4.899716854095459,
        12.741125106811523
      ],
      "min": [
        -9.614009857177734,
        -4.116433143615723,
        1.8548649549484253
      ],
      "type": "VEC3"
    },
    {
      "bufferView": 2,
      "byteOffset": 2359152,
      "componentType": 5126,
      "count": 65532,
      "max": [
        0.9999383687973022,
        0.9999792575836182,
        0.9999992847442627
      ],
      "min": [
        -0.9999806880950928,
        -0.9997647404670715,
        -0.999988317489624
      ],
      "type": "VEC3"
    },
    {
      "bufferView": 1,
      "byteOffset": 524256,
      "componentType": 5126,
      "count": 65532,
      "max": [
        0.9993500113487244,
        0.8161619901657104
      ],
      "min": [
        0.004149999935179949,
        0.011920000426471233
      ],
      "type": "VEC2"
    },
    {
      "bufferView": 0,
      "byteOffset": 1297776,
      "componentType": 5125,
      "count": 320244,
      "type": "SCALAR"
    },
    {
      "bufferView": 2,
      "byteOffset": 3145536,
      "componentType": 5126,
      "count": 65532,
      "max": [
        9.728086471557617,
        5.498427867889404,
        15.911493301391602
      ],
      "min": [
        -9.127246856689453,
        -4.220186233520508,
        1.0135459899902344
      ],
      "type": "VEC3"
    },
    {
      "bufferView": 2,
      "byteOffset": 3931920,
      "componentType": 5126,
      "count": 65532,
      "max": [
        0.9989824891090393,
        0.9999778270721436,
        0.9999972581863403
      ],
      "min": [
        -0.9998546838760376,
        -0.9999949932098389,
        -0.9999873638153076
      ],
      "type": "VEC3"
    },
    {
      "bufferView": 1,
      "byteOffset": 1048512,
      "componentType": 5126,
      "count": 65532,
      "max": [
        0.999439001083374,
        0.8161619901657104
      ],
      "min": [
        0.00024399999529123306,
        0.0007340000011026859
      ],
      "type": "VEC2"
    },
    {
      "bufferView": 0,
      "byteOffset": 2578752,
      "componentType": 5125,
      "count": 316773,
      "type": "SCALAR"
    },
    {
      "bufferView": 2,
      "byteOffset": 4718304,
      "componentType": 5126,
      "count": 65532,
      "max": [
        10.580647468566895,
        4.702991008758545,
        19.16379165649414
      ],
      "min": [
        -9.130487442016602,
        -4.120372772216797,
        1.0260800123214722
      ],
      "type": "VEC3"
    },
    {
      "bufferView": 2,
      "byteOffset": 5504688,
      "componentType": 5126,
      "count": 65532,
      "max": [
        0.9998626708984375,
        0.9999992847442627,
        0.9999644756317139
      ],
      "min": [
        -0.9999808073043823,
        -0.9999969005584717,
        -0.9999516010284424
      ],
      "type": "VEC3"
    },
    {
      "bufferView": 1,
      "byteOffset": 1572768,
      "componentType": 5126,
      "count": 65532,
      "max": [
        0.9992690086364746,
        0.8161619901657104
      ],
      "min": [
        0.00024399999529123306,
        0.0007389999809674919
      ],
      "type": "VEC2"
    },
    {
      "bufferView": 0,
      "byteOffset": 3845844,
      "componentType": 5125,
      "count": 315435,
      "type": "SCALAR"
    },
    {
      "bufferView": 2,
      "byteOffset": 6291072,
      "componentType": 5126,
      "count": 65532,
      "max": [
        10.581670761108398,
        4.529056072235107,
        19.141441345214844
      ],
      "min": [
        -9.821142196655273,
        -4.219944000244141,
        1.0
      ],
      "type": "VEC3"
    },
    {
      "bufferView": 2,
      "byteOffset": 7077456,
      "componentType": 5126,
      "count": 65532,
      "max": [
        0.9995329976081848,
        0.9999963045120239,
        0.9998892545700073
      ],
      "min": [
        -0.9999982118606567,
        -0.9999915361404419,
        -0.9999727010726929
      ],
      "type": "VEC3"
    },
    {
      "bufferView": 1,
      "byteOffset": 2097024,
      "componentType": 5126,
      "count": 65532,
      "max": [
        0.9987019896507263,
        0.8156740069389343
      ],
      "min": [
        0.00024399999529123306,
        0.00381799996830523
      ],
      "type": "VEC2"
    },
    {
      "bufferView": 0,
      "byteOffset": 5107584,
      "componentType": 5125,
      "count": 288663,
      "type": "SCALAR"
    },
    {
      "bufferView": 2,
      "byteOffset": 7863840,
      "componentType": 5126,
      "count": 65532,
      "max": [
        10.295476913452148,
        4.886415004730225,
        17.862754821777344
      ],
      "min": [
        -7.688109874725342,
        -3.945122003555298,
        2.3715529441833496
      ],
      "type": "VEC3"
    },
    {
      "bufferView": 2,
      "byteOffset": 8650224,
      "componentType": 5126,
      "count": 65532,
      "max": [
        0.9998996257781982,
        0.9998977184295654,
        0.9999061822891235
      ],
      "min": [
        -0.9999135732650757,
        -0.9999995231628418,
        -0.9998986721038818
      ],
      "type": "VEC3"
    },
    {
      "bufferView": 1,
      "byteOffset": 2621280,
      "componentType": 5126,
      "count": 65532,
      "max": [
        0.9995560050010681,
        0.8161619901657104
      ],
      "min": [
        0.00024399999529123306,
        0.0007389999809674919
      ],
      "type": "VEC2"
    },
    {
      "bufferView": 0,
      "byteOffset": 6262236,
      "componentType": 5125,
      "count": 295710,
      "type": "SCALAR"
    },
    {
      "bufferView": 2,
      "byteOffset": 9436608,
      "componentType": 5126,
      "count": 65532,
      "max": [
        10.241289138793945,
        4.926724910736084,
        17.153894424438477
      ],
      "min": [
        -9.824640274047852,
        -4.217503070831299,
        1.002405047416687
      ],
      "type": "VEC3"
    },
    {
      "bufferView": 2,
      "byteOffset": 10222992,
      "componentType": 5126,
      "count": 65532,
      "max": [
        0.9999969005584717,
        0.9999983310699463,
        0.9999244213104248
      ],
      "min": [
        -0.9999971389770508,
        -0.9999994039535522,
        -0.9999188184738159
      ],
      "type": "VEC3"
    },
    {
      "bufferView": 1,
      "byteOffset": 3145536,
      "componentType": 5126,
      "count": 65532,
      "max": [
        0.9995129704475403,
        0.8161619901657104
      ],
      "min": [
        0.00024399999529123306,
        0.0008999999845400453
      ],
      "type": "VEC2"
    },
    {
      "bufferView": 0,
      "byteOffset": 7445076,
      "componentType": 5125,
      "count": 285411,
      "type": "SCALAR"
    },
    {
      "bufferView": 2,
      "byteOffset": 11009376,
      "componentType": 5126,
      "count": 65532,
      "max": [
        10.236377716064453,
        4.933080196380615,
        19.458370208740234
      ],
      "min": [
        -9.826103210449219,
        -3.652401924133301,
        1.0016429424285889
      ],
      "type": "VEC3"
    },
    {
      "bufferView": 2,
      "byteOffset": 11795760,
      "componentType": 5126,
      "count": 65532,
      "max": [
        0.9998651742935181,
        0.9999992847442627,
        0.9998934268951416
      ],
      "min": [
        -0.9999971389770508,
        -0.9999996423721313,
        -0.9999397993087769
      ],
      "type": "VEC3"
    },
    {
      "bufferView": 1,
      "byteOffset": 3669792,
      "componentType": 5126,
      "count": 65532,
      "max": [
        0.9988679885864258,
        0.8161619901657104
      ],
      "min": [
        0.00024399999529123306,
        0.05180199816823006
      ],
      "type": "VEC2"
    },
    {
      "bufferView": 0,
      "byteOffset": 8586720,
      "componentType": 5125,
      "count": 249501,
      "type": "SCALAR"
    },
    {
      "bufferView": 2,
      "byteOffset": 12582144,
      "componentType": 5126,
      "count": 55183,
      "max": [
        10.581670761108398,
        5.51199197769165,
        18.97551727294922
      ],
      "min": [
        -6.852176189422607,
        -3.491523027420044,
        1.00075101852417
      ],
      "type": "VEC3"
    },
    {
      "bufferView": 2,
      "byteOffset": 13244340,
      "componentType": 5126,
      "count": 55183,
      "max": [
        0.9999998807907104,
        0.9999997615814209,
        0.9999992847442627
      ],
      "min": [
        -0.9998716115951538,
        -0.9998729228973389,
        -0.9999397993087769
      ],
      "type": "VEC3"
    },
    {
      "bufferView": 1,
      "byteOffset": 4194048,
      "componentType": 5126,
      "count": 55183,
      "max": [
        0.999439001083374,
        0.8161619901657104
      ],
      "min": [
        0.00024399999529123306,
        0.0007360000163316727
      ],
      "type": "VEC2"
    },
    {
      "bufferView": 0,
      "byteOffset": 9584724,
      "componentType": 5125,
      "count": 226866,
      "type": "SCALAR"
    },
    {
      "bufferView": 2,
      "byteOffset": 13906536,
      "componentType": 5126,
      "count": 4366,
      "max": [
        10.178876876831055,
        4.953678131103516,
        1.0000009536743164
      ],
      "min": [
        -9.82975959777832,
        -3.6563010215759277,
        1.0
      ],
      "type": "VEC3"
    },
    {
      "bufferView": 2,
      "byteOffset": 13958928,
      "componentType": 5126,
      "count": 4366,
      "max": [
        0.026799168437719345,
        0.9335711002349854,
        0.3573889136314392
      ],
      "min": [
        -0.01600019261240959,
        -0.7999096512794495,
        -1.0
      ],
      "type": "VEC3"
    },
    {
      "bufferView": 1,
      "byteOffset": 4635512,
      "componentType": 5126,
      "count": 4366,
      "max": [
        0.8474680185317993,
        0.6932709813117981
      ],
      "min": [
        0.6490700244903564,
        0.5325030088424683
      ],
      "type": "VEC2"
    },
    {
      "bufferView": 0,
      "byteOffset": 10492188,
      "componentType": 5125,
      "count": 6321,
      "type": "SCALAR"
    }
  ],
  "asset": {
    "extras": {
      "author": "noe-3d.at (https://sketchfab.com/www.noe-3d.at)",
      "license": "CC-BY-NC-4.0 (http://creativecommons.org/licenses/by-nc/4.0/)",
      "source": "https://sketchfab.com/3d-models/markuslowe-ba4410c5082d45129910b4333575a18f",
      "title": "Markuslöwe"
    },
    "generator": "Sketchfab-12.65.0",
    "version": "2.0"
  },
  "bufferViews": [
    {
      "buffer": 0,
      "byteLength": 10517472,
      "name": "floatBufferViews",
      "target": 34963
    },
    {
      "buffer": 0,
      "byteLength": 4670440,
      "byteOffset": 10517472,
      "byteStride": 8,
      "name": "floatBufferViews",
      "target": 34962
    },
    {
      "buffer": 0,
      "byteLength": 14011320,
      "byteOffset": 15187912,
      "byteStride": 12,
      "name": "floatBufferViews",
      "target": 34962
    }
  ],
  "buffers": [
    {
      "byteLength": 29199232,
      "uri": "scene.bin"
    }
  ],
  "images": [
    {
      "uri": "textures/Markusloewe_O_Material_u1_v1_baseColor.png"
    }
  ],
  "materials": [
    {
      "doubleSided": true,
      "name": "Markusloewe_O_Material_u1_v1",
      "pbrMetallicRoughness": {
        "baseColorTexture": {
          "index": 0
        },
        "metallicFactor": 0.0
      }
    },
    {
      "doubleSided": true,
      "name": "bottom",
      "pbrMetallicRoughness": {
        "baseColorFactor": [
          0.10829235995947611,
          0.10739312945072538,
          0.06416013380809076,
          1.0
        ],
        "metallicFactor": 0.0
      }
    }
  ],
  "meshes": [
    {
      "name": "Object_0",
      "primitives": [
        {
          "attributes": {
            "NORMAL": 1,
            "POSITION": 0,
            "TEXCOORD_0": 2
          },
          "indices": 3,
          "material": 0,
          "mode": 4
        }
      ]
    },
    {
      "name": "Object_1",
      "primitives": [
        {
          "attributes": {
            "NORMAL": 5,
            "POSITION": 4,
            "TEXCOORD_0": 6
          },
          "indices": 7,
          "material": 0,
          "mode": 4
        }
      ]
    },
    {
      "name": "Object_2",
      "primitives": [
        {
          "attributes": {
            "NORMAL": 9,
            "POSITION": 8,
            "TEXCOORD_0": 10
          },
          "indices": 11,
          "material": 0,
          "mode": 4
        }
      ]
    },
    {
      "name": "Object_3",
      "primitives": [
        {
          "attributes": {
            "NORMAL": 13,
            "POSITION": 12,
            "TEXCOORD_0": 14
          },
          "indices": 15,
          "material": 0,
          "mode": 4
        }
      ]
    },
    {
      "name": "Object_4",
      "primitives": [
        {
          "attributes": {
            "NORMAL": 17,
            "POSITION": 16,
            "TEXCOORD_0": 18
          },
          "indices": 19,
          "material": 0,
          "mode": 4
        }
      ]
    },
    {
      "name": "Object_5",
      "primitives": [
        {
          "attributes": {
            "NORMAL": 21,
            "POSITION": 20,
            "TEXCOORD_0": 22
          },
          "indices": 23,
          "material": 0,
          "mode": 4
        }
      ]
    },
    {
      "name": "Object_6",
      "primitives": [
        {
          "attributes": {
            "NORMAL": 25,
            "POSITION": 24,
            "TEXCOORD_0": 26
          },
          "indices": 27,
          "material": 0,
          "mode": 4
        }
      ]
    },
    {
      "name": "Object_7",
      "primitives": [
        {
          "attributes": {
            "NORMAL": 29,
            "POSITION": 28,
            "TEXCOORD_0": 30
          },
          "indices": 31,
          "material": 0,
          "mode": 4
        }
      ]
    },
    {
      "name": "Object_8",
      "primitives": [
        {
          "attributes": {
            "NORMAL": 33,
            "POSITION": 32,
            "TEXCOORD_0": 34
          },
          "indices": 35,
          "material": 0,
          "mode": 4
        }
      ]
    },
    {
      "name": "Object_9",
      "primitives": [
        {
          "attributes": {
            "NORMAL": 37,
            "POSITION": 36,
            "TEXCOORD_0": 38
          },
          "indices": 39,
          "material": 1,
          "mode": 4
        }
      ]
    }
  ],
  "nodes": [
    {
      "children": [
        1
      ],
      "matrix": [
        0.07702871412038803,
        0.0,
        0.0,
        0.0,
        0.0,
        1.710381039474474e-17,
        -0.07702871412038803,
        0.0,
        0.0,
        0.07702871412038803,
        1.710381039474474e-17,
        0.0,
        0.0,
        0.0,
        0.0,
        1.0
      ],
      "name": "Sketchfab_model"
    },
    {
      "children": [
        2,
        3,
        4,
        5,
        6,
        7,
        8,
        9,
        10,
        11
      ],
      "name": "Markusloewe_C.obj.cleaner.materialmerger.gles"
    },
    {
      "mesh": 0,
      "name": "Object_2"
    },
    {
      "mesh": 1,
      "name": "Object_3"
    },
    {
      "mesh": 2,
      "name": "Object_4"
    },
    {
      "mesh": 3,
      "name": "Object_5"
    },
    {
      "mesh": 4,
      "name": "Object_6"
    },
    {
      "mesh": 5,
      "name": "Object_7"
    },
    {
      "mesh": 6,
      "name": "Object_8"
    },
    {
      "mesh": 7,
      "name": "Object_9"
    },
    {
      "mesh": 8,
      "name": "Object_10"
    },
    {
      "mesh": 9,
      "name": "Object_11"
    }
  ],
  "samplers": [
    {
      "magFilter": 9729,
      "minFilter": 9987,
      "wrapS": 10497,
      "wrapT": 10497
    }
  ],
  "scene": 0,
  "scenes": [
    {
      "name": "Sketchfab_Scene",
      "nodes": [
        0
      ]
    }
  ],
  "textures": [
    {
      "sampler": 0,
      "source": 0
    }
  ]
}
